:SAMPLES-PER-SECOND 24
:FULLY-SPECIFIED
:DEGREES
716
root  2.37315 38.5765 29.8539 179.631 -48.71 174.289
RightUpLeg  -16.5281 -12.7146 -19.4087
RightLeg  40.0099 0.982033 0.610561
RightFoot  4.31883 -1.29819 9.63475
RightToes  -1.74623e-010 0 -2.59999e-017
Spine  6.38425 -0.753792 -1.37513
Spine1  15.0454 -0.616675 -2.44787
HEad  -16.3705 -30.3582 12.0564
LeftShoulder1  1.95176 -3.19264 -22.8612
LeftArm  16.8938 8.97218 -41.633
LeftForeArm  134.94 -74.1864 -140.008
LeftHand  -0.00149672 5.45174 17.3682
RightShoulder  3.42449 5.65856 31.4909
RightArm  -3.41058 -21.3395 34.2223
RightForeArm  -6.67325 18.4081 7.74268
RightHand  -0.0307885 -3.63596 -0.759579
LeftUpLeg  2.06562 9.34623 9.95004
LeftLeg  35.96 -3.99448 -2.72986
LeftFoot  -7.48243 0.490667 -13.1915
LeftToes  -6.27559e-011 -2.10356e-011 8.24929e-012
717
root  2.50631 37.1516 29.8256 -179.843 -47.8402 173.181
RightUpLeg  -17.3867 -14.5373 -20.7039
RightLeg  43.8965 2.38509 2.17366
RightFoot  -6.63921 -0.591012 12.6323
RightToes  -1.74623e-010 0 -2.59999e-017
Spine  6.32674 -0.544702 -2.53298
Spine1  15.4076 -0.468862 -2.64975
HEad  -17.4271 -29.8315 11.6775
LeftShoulder1  1.94677 -3.14782 -22.991
LeftArm  14.7669 5.70216 -42.0005
LeftForeArm  133.129 -74.2087 -139.629
LeftHand  0.227179 6.88665 18.4915
RightShoulder  3.26554 5.49538 30.3905
RightArm  0.526544 -15.8428 31.6398
RightForeArm  -5.93577 17.5528 8.45437
RightHand  -0.0903855 -2.63741 -3.24802
LeftUpLeg  2.29735 9.80127 11.0219
LeftLeg  40.4134 -8.10695 -6.92327
LeftFoot  -16.8626 -0.683396 -16.2515
LeftToes  -6.27559e-011 -2.10356e-011 8.24929e-012
718
root  2.63241 35.9318 29.8536 -179.941 -46.7375 173.214
RightUpLeg  -19.422 -17.1181 -21.0299
RightLeg  47.9916 4.03968 4.47401
RightFoot  -13.8008 0.129601 10.5666
RightToes  -1.74623e-010 0 -2.59999e-017
Spine  5.81463 -0.543285 -3.05111
Spine1  16.3531 -0.51673 -3.06626
HEad  -19.2355 -28.7385 11.7334
LeftShoulder1  2.02743 -3.15014 -24.2513
LeftArm  13.4479 0.811962 -41.9591
LeftForeArm  128.272 -75.8218 -133.737
LeftHand  0.503178 8.65584 18.3716
RightShoulder  3.37054 5.6512 30.9217
RightArm  -8.03664 -7.59016 28.3332
RightForeArm  4.93973 12.0396 10.739
RightHand  -0.370686 -0.786041 -9.1828
LeftUpLeg  2.78715 11.173 11.8434
LeftLeg  42.4128 -8.44884 -7.75992
LeftFoot  -26.2237 -1.9969 -16.4835
LeftToes  -6.27559e-011 -2.10356e-011 8.24929e-012
719
root  2.61948 35.8026 29.7481 178.834 -46.4569 173.891
RightUpLeg  -18.6887 -17.4743 -20.8672
RightLeg  48.5096 4.62787 5.24778
RightFoot  -14.0884 0.141522 9.55017
RightToes  -1.74623e-010 0 -2.59999e-017
Spine  5.1462 -0.773156 -2.98239
Spine1  17.3032 -0.766015 -3.57089
HEad  -19.1984 -27.9262 11.5115
LeftShoulder1  2.21862 -3.47155 -25.6505
LeftArm  14.9926 -2.61006 -42.8235
LeftForeArm  115.012 -78.368 -118.43
LeftHand  0.595463 9.25347 18.2753
RightShoulder  3.47706 5.79248 31.518
RightArm  -20.6703 -3.06941 28.5597
RightForeArm  9.65448 9.20977 10.6375
RightHand  -0.857869 -0.82085 -21.5311
LeftUpLeg  4.63739 10.5711 11.896
LeftLeg  40.7198 -6.85738 -5.87953
LeftFoot  -28.0989 -2.23606 -16.1918
LeftToes  -6.27559e-011 -2.10356e-011 8.24929e-012
720
root  2.39403 37.0704 29.4179 177.457 -47.2696 174.674
RightUpLeg  -13.9101 -16.028 -20.3107
RightLeg  42.1774 4.43931 4.0175
RightFoot  -9.25077 -0.286337 12.1912
RightToes  -1.74623e-010 0 -2.59999e-017
Spine  3.87518 -1.17171 -3.27364
Spine1  17.4249 -1.31488 -2.72009
HEad  -15.5699 -27.9617 10.4693
LeftShoulder1  2.29048 -3.70243 -25.6334
LeftArm  19.3399 -1.48421 -45.5148
LeftForeArm  101.883 -79.3158 -106.007
LeftHand  0.450192 8.19274 19.0963
RightShoulder  3.37895 5.67278 30.9299
RightArm  -19.3799 -4.87057 32.644
RightForeArm  -2.75514 14.8273 8.99532
RightHand  -1.31533 -0.462685 -30.4947
LeftUpLeg  7.69038 7.95926 11.5829
LeftLeg  34.7376 -5.7224 -3.87524
LeftFoot  -20.6857 -1.32979 -17.6589
LeftToes  -6.27559e-011 -2.10356e-011 8.24929e-012
721
root  2.10083 38.985 29.1185 176.458 -47.4796 175.71
RightUpLeg  -9.08829 -13.4618 -18.8429
RightLeg  32.6718 2.73869 1.66506
RightFoot  1.3866 -1.6512 14.8731
RightToes  -1.74623e-010 0 -2.59999e-017
Spine  3.05078 -1.19906 -3.22019
Spine1  15.2841 -1.45214 -1.45392
HEad  -10.2428 -28.6982 9.25095
LeftShoulder1  2.20677 -3.61113 -24.8294
LeftArm  24.0726 2.51864 -47.8211
LeftForeArm  102.39 -79.0623 -108.616
LeftHand  0.148754 6.48954 17.0818
RightShoulder  3.26906 5.53446 30.2689
RightArm  -7.50694 -9.365 35.4827
RightForeArm  -17.3165 22.8263 6.22247
RightHand  -1.12353 -0.586549 -26.5245
LeftUpLeg  9.99655 7.49152 11.7842
LeftLeg  27.8052 -4.54196 -2.24248
LeftFoot  -6.07098 0.804567 -17.1037
LeftToes  -6.27559e-011 -2.10356e-011 8.24929e-012
722
root  1.85462 40.6485 28.9395 176.171 -48.1623 176.354
RightUpLeg  -6.49345 -11.9672 -17.6734
RightLeg  25.6647 0.271758 -0.0828965
RightFoot  14.904 -2.95523 13.2249
RightToes  -1.74623e-010 0 -2.59999e-017
Spine  2.51282 -1.31983 -3.66579
Spine1  13.2782 -1.78268 0.204372
HEad  -7.4754 -29.4855 9.23026
LeftShoulder1  2.12602 -3.53437 -23.9816
LeftArm  26.9775 5.49706 -48.4954
LeftForeArm  115.178 -78.2204 -119.486
LeftHand  -0.0467652 5.06798 10.8899
RightShoulder  3.23415 5.49698 30.0283
RightArm  -2.73602 -13.9135 35.089
RightForeArm  -13.5287 30.8686 7.38238
RightHand  -0.639534 -0.646644 -15.668
LeftUpLeg  10.4246 8.26663 11.8122
LeftLeg  22.6347 -3.14465 -1.10119
LeftFoot  7.34877 2.37486 -14.6241
LeftToes  -6.27559e-011 -2.10356e-011 8.24929e-012
723
root  1.70108 41.6226 28.8317 176.747 -49.9449 175.97
RightUpLeg  -5.40732 -11.7755 -17.6065
RightLeg  22.6748 -0.0817936 -0.254766
RightFoot  20.0891 -2.37023 8.91109
RightToes  -1.74623e-010 0 -2.59999e-017
Spine  1.73927 -1.76607 -5.00828
Spine1  13.3121 -2.51596 1.63995
HEad  -8.51088 -29.9575 10.4045
LeftShoulder1  2.06127 -3.65603 -22.4898
LeftArm  28.0366 5.38182 -49.2211
LeftForeArm  130.96 -77.0473 -129.757
LeftHand  -0.119372 3.71443 7.32731
RightShoulder  3.08326 5.34181 28.9274
RightArm  0.197264 -17.8759 34.989
RightForeArm  -3.72695 41.8431 10.2602
RightHand  -0.351103 -0.640085 -8.54804
LeftUpLeg  9.34953 7.69199 11.0207
LeftLeg  20.641 -2.04159 -0.515529
LeftFoot  9.7356 2.55412 -13.9829
LeftToes  -6.27559e-011 -2.10356e-011 8.24929e-012
724
root  1.67084 41.972 28.8611 176.996 -50.6164 175.664
RightUpLeg  -5.11594 -10.0186 -17.4367
RightLeg  21.5063 2.32951 0.80033
RightFoot  17.2028 -1.50241 6.37247
RightToes  -1.74623e-010 0 -2.59999e-017
Spine  2.36159 -1.62233 -4.65374
Spine1  12.9351 -2.18471 0.618766
HEad  -10.9079 -30.563 11.7068
LeftShoulder1  1.93243 -3.62552 -20.695
LeftArm  29.0656 1.78333 -50.4159
LeftForeArm  137.979 -75.994 -135.298
LeftHand  -0.12703 3.9961 9.43861
RightShoulder  2.84666 5.11312 27.0495
RightArm  3.54943 -20.3857 35.5425
RightForeArm  5.53881 52.9893 14.5634
RightHand  -0.20235 -1.53168 -5.91528
LeftUpLeg  8.17773 7.69303 10.5704
LeftLeg  19.7841 -2.18446 -0.538786
LeftFoot  6.5162 2.19564 -14.1695
LeftToes  -6.27559e-011 -2.10356e-011 8.24929e-012
725
root  1.69764 41.7403 28.9198 176.326 -51.7661 176.026
RightUpLeg  -4.59694 -7.50111 -17.0796
RightLeg  21.1991 5.02405 1.94277
RightFoot  15.5933 -1.74231 7.70398
RightToes  -1.74623e-010 0 -2.59999e-017
Spine  3.75496 -1.42387 -3.97211
Spine1  12.5235 -1.89116 -0.00224944
HEad  -13.3306 -31.6 13.0146
LeftShoulder1  1.82851 -3.43165 -19.9022
LeftArm  30.0224 -4.57895 -50.8531
LeftForeArm  135.569 -75.5197 -136.319
LeftHand  0.00163748 5.58336 11.9337
RightShoulder  2.71985 5.04052 25.7971
RightArm  7.05171 -20.992 34.7947
RightForeArm  14.138 62.2937 20.6948
RightHand  -0.156739 -2.30772 -5.55547
LeftUpLeg  6.95962 7.25002 10.6946
LeftLeg  18.3838 -3.57168 -1.05174
LeftFoot  7.18739 2.22726 -13.8661
LeftToes  -6.27559e-011 -2.10356e-011 8.24929e-012
726
root  1.73162 40.8053 28.8942 175.677 -54.6766 176.377
RightUpLeg  -3.99664 -6.78636 -17.2614
RightLeg  23.6818 5.17773 2.26072
RightFoot  12.1276 -2.20464 11.0248
RightToes  -1.74623e-010 0 -2.59999e-017
Spine  4.41612 -1.71853 -4.93601
Spine1  13.2232 -2.6698 1.41098
HEad  -15.1858 -32.6235 14.0387
LeftShoulder1  1.79081 -3.4229 -19.3559
LeftArm  29.3784 -11.691 -51.6948
LeftForeArm  131.437 -75.6447 -135.055
LeftHand  0.116048 6.70839 12.1299
RightShoulder  2.63972 5.05914 24.7419
RightArm  9.09598 -20.1306 33.7785
RightForeArm  23.1034 69.3749 29.3439
RightHand  -0.141788 -3.01427 -6.32731
LeftUpLeg  4.37619 5.35335 10.8844
LeftLeg  20.4627 -5.28637 -1.85816
LeftFoot  5.92064 2.10597 -14.0734
LeftToes  -6.27559e-011 -2.10356e-011 8.24929e-012
